<?xml version="1.0" encoding="utf-8" standalone="no"?><!DOCTYPE svg PUBLIC "-//W3C//DTD SVG 20010904//EN" "http://www.w3.org/TR/2001/REC-SVG-20010904/DTD/svg10.dtd"><svg xmlns="http://www.w3.org/2000/svg" width="561" height="525" xmlns:xlink="http://www.w3.org/1999/xlink"><source><![CDATA[Caller->Twilio: Phones number
Twilio-->Our API: POST to configured URL
Our API-->Twilio: 'say' + 'gather' TwiML
Twilio->Caller: Hears message
Caller->Twilio: Presses keypad
Caller->Twilio: Presses keypad
Twilio->Our API: POST with DIGITS parameter
Our API->Twilio: 'hangup' TwiML
Twilio-->Caller: <call finished>]]></source><desc></desc><defs><marker viewBox="0 0 5 5" markerWidth="5" markerHeight="5" orient="auto" refX="5" refY="2.5" id="markerArrowBlock"><path d="M 0 0 L 5 2.5 L 0 5 z"></path></marker><marker viewBox="0 0 9.6 16" markerWidth="4" markerHeight="16" orient="auto" refX="9.6" refY="8" id="markerArrowOpen"><path d="M 9.6,8 1.92,16 0,13.7 5.76,8 0,2.286 1.92,0 9.6,8 z"></path></marker></defs><g class="title"></g><g class="actor"><path d="M10,20C54.4,17.1 50.0,22.9 82.9,20.0C81.2,44.1 84.6,44.9 82.9,62.3C49.6,65.2 36.5,59.4 10.0,62.3C11.7,27.3 8.3,30.3 10.0,20.0" stroke="#000000" fill="#ffffff" style="stroke-width: 2px;"></path><text x="20" y="43.765625" style="font-size: 16px; font-family: danielbd;"><tspan x="20">Caller</tspan></text></g><g class="actor"><path d="M10,463.28125C44.7,466.2 49.7,460.4 82.9,463.3C81.2,473.4 84.6,470.1 82.9,505.6C25.9,502.7 38.1,508.5 10.0,505.6C8.3,473.4 11.7,493.6 10.0,463.3" stroke="#000000" fill="#ffffff" style="stroke-width: 2px;"></path><text x="20" y="487.046875" style="font-size: 16px; font-family: danielbd;"><tspan x="20">Caller</tspan></text></g><path d="M46.5,62.3C30.4,158.6 62.5,305.5 46.5,463.3" stroke="#000000" fill="none" style="stroke-width: 2px;"></path><g class="actor"><path d="M163.0546875,20C179.3,22.7 179.4,17.3 231.2,20.0C229.5,43.7 232.9,32.4 231.2,62.3C181.5,59.6 179.4,65.1 163.1,62.3C161.4,45.8 164.7,30.7 163.1,20.0" stroke="#000000" fill="#ffffff" style="stroke-width: 2px;"></path><text x="173.0546875" y="43.765625" style="font-size: 16px; font-family: danielbd;"><tspan x="173.0546875">Twilio</tspan></text></g><g class="actor"><path d="M163.0546875,463.28125C180.0,466.0 217.6,460.6 231.2,463.3C229.5,474.4 232.9,497.3 231.2,505.6C220.3,502.9 200.6,508.3 163.1,505.6C161.4,495.5 164.7,473.4 163.1,463.3" stroke="#000000" fill="#ffffff" style="stroke-width: 2px;"></path><text x="173.0546875" y="487.046875" style="font-size: 16px; font-family: danielbd;"><tspan x="173.0546875">Twilio</tspan></text></g><path d="M197.1,62.3C181.1,126.5 213.2,354.9 197.1,463.3" stroke="#000000" fill="none" style="stroke-width: 2px;"></path><g class="actor"><path d="M437.484375,20C516.3,16.2 507.8,23.8 531.3,20.0C529.6,51.5 533.0,26.8 531.3,62.3C460.4,66.1 467.9,58.6 437.5,62.3C439.2,55.6 435.8,26.8 437.5,20.0" stroke="#000000" fill="#ffffff" style="stroke-width: 2px;"></path><text x="447.484375" y="43.765625" style="font-size: 16px; font-family: danielbd;"><tspan x="447.484375">Our API</tspan></text></g><g class="actor"><path d="M437.484375,463.28125C452.5,459.5 516.3,467.0 531.3,463.3C533.0,470.1 529.6,498.8 531.3,505.6C482.5,501.9 452.5,509.4 437.5,505.6C435.8,484.5 439.2,470.1 437.5,463.3" stroke="#000000" fill="#ffffff" style="stroke-width: 2px;"></path><text x="447.484375" y="487.046875" style="font-size: 16px; font-family: danielbd;"><tspan x="447.484375">Our API</tspan></text></g><path d="M484.4,62.3C500.4,199.3 468.3,259.9 484.4,463.3" stroke="#000000" fill="none" style="stroke-width: 2px;"></path><g class="signal"><text x="57.3125" y="89.9296875" style="font-size: 16px; font-family: danielbd;"><tspan x="57.3125">Phones number</tspan></text><path d="M46.5,104.7C161.0,98.6 158.1,110.7 197.1,104.7" stroke="#000000" fill="none" style="stroke-width: 2px; marker-end: url(#markerArrowBlock);"></path></g><g class="signal"><text x="226.8515625" y="132.2578125" style="font-size: 16px; font-family: danielbd;"><tspan x="226.8515625">POST to configured URL</tspan></text><path d="M197.1,147.0C364.7,135.5 415.4,158.5 484.4,147.0" stroke="#000000" fill="none" style="stroke-width: 2px; stroke-dasharray: 6px, 2px; marker-end: url(#markerArrowBlock);"></path></g><g class="signal"><text x="248.1875" y="174.5859375" style="font-size: 16px; font-family: danielbd;"><tspan x="248.1875">'say' + 'gather' TwiML</tspan></text><path d="M484.4,189.3C327.1,200.8 316.3,177.8 197.1,189.3" stroke="#000000" fill="none" style="stroke-width: 2px; stroke-dasharray: 6px, 2px; marker-end: url(#markerArrowBlock);"></path></g><g class="signal"><text x="60.453125" y="216.9140625" style="font-size: 16px; font-family: danielbd;"><tspan x="60.453125">Hears message</tspan></text><path d="M197.1,231.6C123.1,237.7 82.6,225.6 46.5,231.6" stroke="#000000" fill="none" style="stroke-width: 2px; marker-end: url(#markerArrowBlock);"></path></g><g class="signal"><text x="56.4609375" y="259.2421875" style="font-size: 16px; font-family: danielbd;"><tspan x="56.4609375">Presses keypad</tspan></text><path d="M46.5,274.0C82.6,280.0 161.0,267.9 197.1,274.0" stroke="#000000" fill="none" style="stroke-width: 2px; marker-end: url(#markerArrowBlock);"></path></g><g class="signal"><text x="56.4609375" y="301.5703125" style="font-size: 16px; font-family: danielbd;"><tspan x="56.4609375">Presses keypad</tspan></text><path d="M46.5,316.3C82.6,310.3 73.4,322.3 197.1,316.3" stroke="#000000" fill="none" style="stroke-width: 2px; marker-end: url(#markerArrowBlock);"></path></g><g class="signal"><text x="207.1484375" y="343.8984375" style="font-size: 16px; font-family: danielbd;"><tspan x="207.1484375">POST with DIGITS parameter</tspan></text><path d="M197.1,358.6C336.1,370.1 320.0,347.1 484.4,358.6" stroke="#000000" fill="none" style="stroke-width: 2px; marker-end: url(#markerArrowBlock);"></path></g><g class="signal"><text x="274.3203125" y="386.2265625" style="font-size: 16px; font-family: danielbd;"><tspan x="274.3203125">'hangup' TwiML</tspan></text><path d="M484.4,401.0C376.7,389.5 243.1,412.4 197.1,401.0" stroke="#000000" fill="none" style="stroke-width: 2px; marker-end: url(#markerArrowBlock);"></path></g><g class="signal"><text x="63.9453125" y="428.5546875" style="font-size: 16px; font-family: danielbd;"><tspan x="63.9453125">&lt;call finished&gt;</tspan></text><path d="M197.1,443.3C128.2,449.3 161.0,437.3 46.5,443.3" stroke="#000000" fill="none" style="stroke-width: 2px; stroke-dasharray: 6px, 2px; marker-end: url(#markerArrowBlock);"></path></g></svg>